<svg width="157" height="52" viewBox="0 0 157 52" fill="none" xmlns="http://www.w3.org/2000/svg">
<path d="M60.2756 39.7209C58.9929 39.7209 57.8336 39.4495 56.7976 38.9069C55.7616 38.3642 54.9352 37.6242 54.3186 36.6869C53.7019 35.7495 53.3689 34.7012 53.3196 33.5419V27.1779C53.3689 26.0185 53.7019 24.9825 54.3186 24.0699C54.9599 23.1325 55.7986 22.4049 56.8346 21.8869C57.8706 21.3689 59.0176 21.1099 60.2756 21.1099C61.9282 21.1099 63.4082 21.5169 64.7156 22.3309C66.0229 23.1449 67.0466 24.2549 67.7866 25.6609C68.5512 27.0669 68.9336 28.6579 68.9336 30.4339C68.9336 32.1852 68.5512 33.7639 67.7866 35.1699C67.0466 36.5759 66.0229 37.6859 64.7156 38.4999C63.4082 39.3139 61.9282 39.7209 60.2756 39.7209ZM59.4616 35.2439C60.3496 35.2439 61.1266 35.0465 61.7926 34.6519C62.4832 34.2325 63.0136 33.6652 63.3836 32.9499C63.7782 32.2099 63.9756 31.3589 63.9756 30.3969C63.9756 29.4595 63.7782 28.6332 63.3836 27.9179C63.0136 27.1779 62.4832 26.6105 61.7926 26.2159C61.1019 25.7965 60.3126 25.5869 59.4246 25.5869C58.5366 25.5869 57.7472 25.7965 57.0566 26.2159C56.3906 26.6105 55.8602 27.1779 55.4656 27.9179C55.0956 28.6332 54.9106 29.4595 54.9106 30.3969C54.9106 31.3589 55.0956 32.2099 55.4656 32.9499C55.8602 33.6652 56.4029 34.2325 57.0936 34.6519C57.7842 35.0465 58.5736 35.2439 59.4616 35.2439ZM50.3596 39.3509V12.5999H55.2066V25.8829L54.3926 30.1749L55.1696 34.5409V39.3509H50.3596ZM79.7335 39.7209C78.1549 39.7209 76.7489 39.3879 75.5155 38.7219C74.3069 38.0559 73.3572 37.1309 72.6665 35.9469C71.9759 34.7629 71.6305 33.3939 71.6305 31.8399V21.4799H76.5145V31.7289C76.5145 32.4689 76.6379 33.1102 76.8845 33.6529C77.1312 34.1709 77.5012 34.5655 77.9945 34.8369C78.4879 35.1082 79.0675 35.2439 79.7335 35.2439C80.7449 35.2439 81.5342 34.9355 82.1015 34.3189C82.6689 33.7022 82.9525 32.8389 82.9525 31.7289V21.4799H87.7995V31.8399C87.7995 33.4185 87.4542 34.7999 86.7635 35.9839C86.0975 37.1679 85.1479 38.0929 83.9145 38.7589C82.7059 39.4002 81.3122 39.7209 79.7335 39.7209ZM99.2074 39.7209C97.5547 39.7209 96.0747 39.3139 94.7674 38.4999C93.46 37.6859 92.424 36.5759 91.6594 35.1699C90.9194 33.7639 90.5494 32.1852 90.5494 30.4339C90.5494 28.6579 90.9194 27.0669 91.6594 25.6609C92.424 24.2549 93.4477 23.1449 94.7304 22.3309C96.0377 21.5169 97.53 21.1099 99.2074 21.1099C100.49 21.1099 101.637 21.3689 102.648 21.8869C103.684 22.4049 104.511 23.1325 105.127 24.0699C105.769 24.9825 106.114 26.0185 106.163 27.1779V33.5419C106.114 34.7012 105.781 35.7495 105.164 36.6869C104.548 37.6242 103.721 38.3642 102.685 38.9069C101.649 39.4495 100.49 39.7209 99.2074 39.7209ZM100.021 35.2439C100.934 35.2439 101.723 35.0465 102.389 34.6519C103.08 34.2325 103.61 33.6652 103.98 32.9499C104.375 32.2099 104.572 31.3589 104.572 30.3969C104.572 29.4595 104.375 28.6332 103.98 27.9179C103.61 27.1779 103.08 26.6105 102.389 26.2159C101.723 25.7965 100.946 25.5869 100.058 25.5869C99.1457 25.5869 98.344 25.7965 97.6534 26.2159C96.9874 26.6352 96.457 27.2025 96.0624 27.9179C95.6924 28.6332 95.5074 29.4595 95.5074 30.3969C95.5074 31.3589 95.6924 32.2099 96.0624 32.9499C96.457 33.6652 96.9997 34.2325 97.6904 34.6519C98.381 35.0465 99.158 35.2439 100.021 35.2439ZM109.123 39.3509H104.313V34.5409L105.09 30.1749L104.276 25.8829V12.5999H109.123V39.3509ZM119.553 39.7579C118.542 39.7579 117.543 39.6222 116.556 39.3509C115.594 39.0795 114.706 38.7095 113.892 38.2409C113.078 37.7475 112.375 37.1555 111.783 36.4649L114.669 33.5419C115.286 34.2325 116.001 34.7505 116.815 35.0959C117.629 35.4412 118.53 35.6139 119.516 35.6139C120.306 35.6139 120.898 35.5029 121.292 35.2809C121.712 35.0589 121.921 34.7259 121.921 34.2819C121.921 33.7885 121.699 33.4062 121.255 33.1349C120.836 32.8635 120.281 32.6415 119.59 32.4689C118.9 32.2715 118.172 32.0619 117.407 31.8399C116.667 31.5932 115.952 31.2849 115.261 30.9149C114.571 30.5202 114.003 29.9899 113.559 29.3239C113.14 28.6332 112.93 27.7452 112.93 26.6599C112.93 25.5252 113.202 24.5385 113.744 23.6999C114.312 22.8612 115.113 22.2075 116.149 21.7389C117.185 21.2702 118.406 21.0359 119.812 21.0359C121.292 21.0359 122.624 21.2949 123.808 21.8129C125.017 22.3309 126.016 23.1079 126.805 24.1439L123.882 27.0669C123.34 26.4009 122.723 25.9199 122.032 25.6239C121.366 25.3279 120.639 25.1799 119.849 25.1799C119.134 25.1799 118.579 25.2909 118.184 25.5129C117.814 25.7349 117.629 26.0432 117.629 26.4379C117.629 26.8819 117.839 27.2272 118.258 27.4739C118.702 27.7205 119.27 27.9425 119.96 28.1399C120.651 28.3125 121.366 28.5222 122.106 28.7689C122.871 28.9909 123.586 29.3115 124.252 29.7309C124.943 30.1502 125.498 30.7052 125.917 31.3959C126.361 32.0865 126.583 32.9745 126.583 34.0599C126.583 35.8112 125.954 37.2049 124.696 38.2409C123.438 39.2522 121.724 39.7579 119.553 39.7579ZM135.994 39.7579C134.982 39.7579 133.983 39.6222 132.997 39.3509C132.035 39.0795 131.147 38.7095 130.333 38.2409C129.519 37.7475 128.816 37.1555 128.224 36.4649L131.11 33.5419C131.726 34.2325 132.442 34.7505 133.256 35.0959C134.07 35.4412 134.97 35.6139 135.957 35.6139C136.746 35.6139 137.338 35.5029 137.733 35.2809C138.152 35.0589 138.362 34.7259 138.362 34.2819C138.362 33.7885 138.14 33.4062 137.696 33.1349C137.276 32.8635 136.721 32.6415 136.031 32.4689C135.34 32.2715 134.612 32.0619 133.848 31.8399C133.108 31.5932 132.392 31.2849 131.702 30.9149C131.011 30.5202 130.444 29.9899 130 29.3239C129.58 28.6332 129.371 27.7452 129.371 26.6599C129.371 25.5252 129.642 24.5385 130.185 23.6999C130.752 22.8612 131.554 22.2075 132.59 21.7389C133.626 21.2702 134.847 21.0359 136.253 21.0359C137.733 21.0359 139.065 21.2949 140.249 21.8129C141.457 22.3309 142.456 23.1079 143.246 24.1439L140.323 27.0669C139.78 26.4009 139.163 25.9199 138.473 25.6239C137.807 25.3279 137.079 25.1799 136.29 25.1799C135.574 25.1799 135.019 25.2909 134.625 25.5129C134.255 25.7349 134.07 26.0432 134.07 26.4379C134.07 26.8819 134.279 27.2272 134.699 27.4739C135.143 27.7205 135.71 27.9425 136.401 28.1399C137.091 28.3125 137.807 28.5222 138.547 28.7689C139.311 28.9909 140.027 29.3115 140.693 29.7309C141.383 30.1502 141.938 30.7052 142.358 31.3959C142.802 32.0865 143.024 32.9745 143.024 34.0599C143.024 35.8112 142.395 37.2049 141.137 38.2409C139.879 39.2522 138.164 39.7579 135.994 39.7579Z" fill="white"/>
<path opacity="0.7" d="M25.3803 26.2532L22.1351 26.297C18.2732 26.3492 15.1003 23.2608 15.0481 19.3989C14.9959 15.537 18.0843 12.3641 21.9462 12.3119L37.9886 12.0952" stroke="#FFAA4C" stroke-width="8.44412" stroke-linecap="round"/>
<path opacity="0.7" d="M36.5708 40.4026L20.5198 40.3593C16.6616 40.349 13.5423 37.2128 13.5527 33.3546C13.563 29.5039 16.6873 26.3877 20.538 26.3874L25.5062 26.3869" stroke="#2FDBBC" stroke-width="8.44412" stroke-linecap="round"/>
<path opacity="0.7" d="M36.6737 40.2685L26.4257 27.8075C25.5015 26.6837 25.5608 25.0469 26.5641 23.993L37.9155 12.0678" stroke="#A64CED" stroke-width="8.44412" stroke-linecap="round"/>
</svg>
